<svg width="14" height="16" viewBox="0 0 14 16" fill="none" xmlns="http://www.w3.org/2000/svg">
<path d="M11.1826 4.66131C11.0811 4.66131 11.0112 3.4108 10.8826 2.87402C10.5372 1.43341 9.71147 0.41272 8.2979 0.151015C7.8729 0.0724215 7.43493 0.013579 7 0C6.56507 0.013579 6.1271 0.0722158 5.7021 0.151015C4.28853 0.41272 3.46283 1.43341 3.11744 2.87402C2.9888 3.4106 2.91891 4.66131 2.81742 4.66131C1.98747 4.66131 0.832991 4.66131 0 4.66131C0 4.68476 0 4.70637 0 4.72735C0 4.72632 0 4.72859 0 4.73476C0 7.55796 0.105745 10.381 0.106757 13.2042C0.107365 14.8583 1.29486 15.999 2.86179 15.9994C4.25085 15.9998 5.62532 16 7 16C8.37468 16 9.74915 15.9998 11.1382 15.9994C12.7051 15.999 13.8926 14.8583 13.8932 13.2042C13.8943 10.381 14 7.55796 14 4.73476C14 4.72859 14 4.72632 14 4.72735C14 4.70637 14 4.68476 14 4.66131C13.167 4.66131 12.0125 4.66131 11.1826 4.66131ZM4.92259 2.81518C5.16163 2.293 5.57184 1.89551 6.06998 1.84284C6.37728 1.81054 6.68864 1.80231 6.9998 1.81074C7.31095 1.80251 7.62231 1.81054 7.92962 1.84284C8.42775 1.8953 8.83797 2.2928 9.07701 2.81518C9.32719 3.36122 9.42058 4.66131 9.4538 4.66131C8.63398 4.66131 7.81638 4.66131 6.9996 4.66131C6.18281 4.66131 5.36542 4.66131 4.54539 4.66131C4.57902 4.66131 4.67261 3.36122 4.92259 2.81518ZM11.1182 14.2283C9.70641 14.2156 8.35402 14.2129 7 14.2131C5.64598 14.2129 4.29359 14.2154 2.88184 14.2281C2.38107 14.2327 1.93561 13.8138 1.94148 13.3002C1.96721 11.0445 1.95242 8.84797 1.95303 6.592C1.95303 6.50291 1.96053 7.33267 1.96458 6.44222C3.70328 6.44222 5.36218 6.44222 7 6.44222C8.63782 6.44222 10.2967 6.44222 12.0354 6.44222C12.0395 7.33267 12.047 6.50291 12.047 6.592C12.0476 8.84797 12.0328 11.0447 12.0585 13.3002C12.0644 13.814 11.6189 14.2329 11.1182 14.2283Z" fill="black"/>
</svg>
