<svg width="6" height="9" viewBox="0 0 6 9" fill="none" xmlns="http://www.w3.org/2000/svg">
<path d="M1.34381 0.195381C1.19595 0.0696066 0.996518 -0.000618165 0.788968 4.10042e-06C0.581418 0.000626366 0.382561 0.0720453 0.235714 0.198704C0.0888667 0.325362 0.00592694 0.496998 0.00496173 0.676224C0.00399652 0.85545 0.0850839 1.02774 0.230561 1.15558L4.10004 4.49814L0.230561 7.83958C0.157464 7.9027 0.0994804 7.97763 0.0599207 8.06011C0.020361 8.14258 1.5404e-09 8.23097 0 8.32024C-1.5404e-09 8.40951 0.020361 8.4979 0.0599207 8.58037C0.0994804 8.66284 0.157464 8.73778 0.230561 8.8009C0.303658 8.86402 0.390436 8.91409 0.485942 8.94826C0.581447 8.98242 0.68381 9 0.787184 9C0.890559 9 0.992921 8.98242 1.08843 8.94826C1.18393 8.91409 1.27071 8.86402 1.34381 8.8009L5.76926 4.97824C5.84241 4.91514 5.90044 4.84021 5.94003 4.75774C5.97962 4.67526 6 4.58686 6 4.49758C6 4.40829 5.97962 4.31989 5.94003 4.23741C5.90044 4.15494 5.84241 4.08001 5.76926 4.01691L1.34381 0.195381Z" fill="black"/>
</svg>
