<svg width="6" height="9" viewBox="0 0 6 9" fill="none" xmlns="http://www.w3.org/2000/svg">
<path d="M4.65619 8.80462C4.80405 8.93039 5.00348 9.00062 5.21103 9C5.41858 8.99937 5.61744 8.92795 5.76429 8.8013C5.91113 8.67464 5.99407 8.503 5.99504 8.32378C5.996 8.14455 5.91492 7.97226 5.76944 7.84442L1.89996 4.50186L5.76944 1.16042C5.84254 1.0973 5.90052 1.02237 5.94008 0.939894C5.97964 0.857422 6 0.769029 6 0.679762C6 0.590494 5.97964 0.502101 5.94008 0.419628C5.90052 0.337155 5.84254 0.262219 5.76944 0.199098C5.69634 0.135976 5.60956 0.0859051 5.51406 0.0517435C5.41855 0.0175829 5.31619 0 5.21282 0C5.10944 0 5.00708 0.0175829 4.91157 0.0517435C4.81607 0.0859051 4.72929 0.135976 4.65619 0.199098L0.230742 4.02176C0.157593 4.08486 0.0995646 4.15979 0.0599718 4.24226C0.0203795 4.32474 0 4.41314 0 4.50242C0 4.59171 0.0203795 4.68011 0.0599718 4.76259C0.0995646 4.84506 0.157593 4.91999 0.230742 4.98309L4.65619 8.80462Z" fill="black"/>
</svg>
