<svg width="11" height="17" viewBox="0 0 11 17" fill="none" xmlns="http://www.w3.org/2000/svg">
<path d="M1.92857 1.55848L3.62169 1.55848V0.304531C3.62169 0.125395 3.76279 0 3.92152 0L7.07848 0C7.25485 0 7.37831 0.143309 7.37831 0.304531V1.55848L9.07143 1.55848C9.86508 1.55848 10.5 2.20337 10.5 3.00948L10.5 15.549C10.5 16.3551 9.84744 17 9.07143 17L1.92857 17C1.13492 17 0.5 16.3551 0.5 15.549L0.5 3.00948C0.5 2.20337 1.13492 1.55848 1.92857 1.55848ZM3.53351 10.0854H4.48589V13.0411C4.48589 13.4173 4.96208 13.5606 5.15609 13.2561L7.8545 9.17176C8.0485 8.86723 7.83686 8.47313 7.48413 8.47313H6.53175V5.51739C6.53175 5.1412 6.05556 4.99789 5.86155 5.30242L3.1455 9.36881C2.9515 9.67334 3.16314 10.0854 3.53351 10.0854Z" fill="white" fill-opacity="0.8"/>
</svg>
